<?xml version="1.0" encoding="UTF-8" standalone="no"?>
<!DOCTYPE svg PUBLIC "-//W3C//DTD SVG 1.1//EN" "http://www.w3.org/Graphics/SVG/1.1/DTD/svg11.dtd">
<svg width="100%" height="100%" viewBox="0 0 1341 2252" version="1.1" xmlns="http://www.w3.org/2000/svg" xmlns:xlink="http://www.w3.org/1999/xlink" xml:space="preserve" xmlns:serif="http://www.serif.com/" style="fill-rule:evenodd;clip-rule:evenodd;stroke-linejoin:round;stroke-miterlimit:1.41421;">
    <g transform="matrix(1,0,0,1,-573.859,-131.859)">
        <g transform="matrix(102.214,0,0,102.214,810.426,111.421)">
            <path d="M0,22.223C0,22.223 -8.309,11.513 6.56,3.247C5.094,1.338 2.518,2.656 2.518,2.656C2.518,2.656 5.393,0 8.758,0.212C11.209,3.58 10.774,6.761 10.774,6.761C10.774,6.761 10.5,4.286 8.45,4.177C1.686,7.494 3.762,19.147 3.762,19.147C3.762,19.147 1.312,16.506 1.361,13.858C-2.017,15.544 0,22.223 0,22.223" style="fill:rgb(0,60,66);fill-rule:nonzero;"/>
        </g>
    </g>
</svg>
