<?xml version="1.0" encoding="UTF-8" standalone="no"?>
<!DOCTYPE svg PUBLIC "-//W3C//DTD SVG 1.1//EN" "http://www.w3.org/Graphics/SVG/1.1/DTD/svg11.dtd">
<svg width="100%" height="100%" viewBox="0 0 1803 2311" version="1.1" xmlns="http://www.w3.org/2000/svg" xmlns:xlink="http://www.w3.org/1999/xlink" xml:space="preserve" xmlns:serif="http://www.serif.com/" style="fill-rule:evenodd;clip-rule:evenodd;stroke-linejoin:round;stroke-miterlimit:1.41421;">
    <g transform="matrix(1,0,0,1,-346.598,-95.4059)">
        <g transform="matrix(31.5463,0,0,31.5463,940.268,594.388)">
            <path d="M0,41.358C0.616,41.168 0.676,40.419 1.036,39.974C0.418,40.165 0.36,40.912 0,41.358M-6.216,37.041C-7.235,37.46 -8.172,37.96 -8.806,38.767C-7.875,39.128 -6.243,37.005 -6.216,37.041M-4.144,23.053C-4.746,22.333 -5.257,21.518 -6.388,21.328C-6.566,18.435 -3.041,19.057 -3.108,21.5C-2.825,21.91 -2.219,21.991 -1.9,22.364C-2.113,23.129 -3.801,22.417 -4.144,23.053M-4.316,25.297C-4.295,25.68 -3.584,25.372 -3.281,25.471C-3.882,26.252 -5.318,26.194 -6.388,26.507C-6.578,26.181 -6.608,25.691 -6.733,25.297C-5.906,24.666 -3.863,23.149 -2.762,24.436C-3.061,24.942 -3.572,25.238 -4.316,25.297M-6.562,27.199C-6.388,26.795 -5.966,26.64 -5.352,26.679C-5.663,26.945 -5.88,27.305 -6.562,27.199M-7.771,30.994C-8.119,30.472 -8.086,29.585 -7.423,28.923C-6.359,29.861 -4.938,28.527 -3.972,28.923C-4.493,30.36 -6.563,30.246 -7.771,30.994M29.523,30.822C29.733,30.771 30.119,31.324 29.695,31.344C29.038,31.09 26.973,30.758 28.143,29.787C28.773,29.682 28.944,30.93 29.523,30.304C29.079,30.173 28.791,29.887 28.66,29.441C29.096,29.017 29.979,29.034 30.731,28.923C30.632,26.08 35.365,27.798 35.738,25.817C36.193,23.397 30.456,23.919 32.458,20.119C32.208,20.023 32.037,19.851 31.94,19.601C30.645,19.399 30.214,20.064 29.006,19.947C28.902,19.394 29.328,19.413 29.006,19.084C28.32,19.339 28.009,19.552 27.796,18.738C28.067,18.089 29.406,18.508 29.523,17.703C27.428,18.151 25.087,18.357 25.379,15.631C27.975,14.286 29.297,11.663 31.594,10.279C32.73,9.595 33.962,8.868 34.011,7.343C32.273,5.068 30.823,8.446 28.488,8.207C26.447,9.1 25.597,11.188 23.481,12.006C23.766,11.697 23.731,10.74 23.135,10.796C22.281,10.927 23.223,12.176 22.962,12.178C21.956,12.072 22.539,10.927 22.271,10.279C21.893,9.356 20.947,8.82 21.582,7.343C21.982,7.112 22.562,7.056 22.962,6.826C22.741,5.837 23.956,4.235 22.445,4.063C21.999,4.308 22.187,5.186 21.582,5.27C20.537,2.813 21.395,0.658 20.89,-1.979C18.453,-3.968 18.624,0.084 17.265,0.783C17.266,-0.103 17.487,0.004 17.61,-0.944C16.489,-0.626 17.567,1.89 16.229,1.99C15.76,0.85 15.638,-0.641 14.158,-0.77C13.629,0.652 15.159,1.546 15.021,2.682C16.892,1.868 14.723,4.644 13.294,4.235C12.824,4.071 12.965,3.295 12.085,3.545C11.938,4.872 12.631,7.259 10.531,6.654C6.865,2.952 3.795,-1.341 2.589,-7.503C0.891,-8.656 1.483,-15.463 -1.208,-15.794C-3.382,-16.056 -2.957,-14.057 -2.59,-13.033C-1.739,-10.649 -0.596,-6.687 0.173,-4.915C2.175,-0.293 4.862,3.503 3.799,8.379C2.604,10.925 -0.469,9.195 -2.244,8.207C-3.715,7.386 -4.254,6.962 -4.316,5.444C-7.26,4.756 -8.551,1.511 -11.568,1.472C-9.708,6.001 -4.731,7.413 -1.727,10.796C-1.742,11.908 -1.247,13.424 -1.727,14.422C-2.998,13.735 -4.536,13.318 -5.698,12.524C-4.789,13.918 -2.589,14.017 -1.554,15.286C-5.078,17.733 -11.06,16.285 -14.329,14.596C-14.454,14.126 -13.515,14.719 -13.64,14.249C-14.729,13.845 -14.868,14.904 -16.057,15.114C-16.083,15.315 -16.026,15.603 -16.229,15.631C-15.283,18.599 -9.927,17.156 -7.771,18.912C-8.196,18.887 -8.601,18.885 -8.804,19.084C-8.764,20.289 -8.766,20.511 -8.286,21.328C-10.361,22.359 -11.29,24.543 -13.293,25.643C-12.931,25.998 -11.863,25.275 -11.568,25.989C-12.28,27.328 -14.099,28.357 -14.502,29.441C-15.938,30.139 -17.739,30.464 -18.819,31.518C-16.232,30.951 -12.278,29.476 -10.705,27.888C-9.744,28.137 -8.662,27.677 -8.286,28.752C-8.609,28.613 -8.92,28.465 -9.324,28.406C-9.547,28.834 -8.937,29.247 -9.324,29.269C-10.424,29.267 -9.942,30.102 -10.531,29.441C-10.917,30.505 -8.993,30.636 -8.286,31.172C-8.806,31.455 -9.694,31.373 -9.841,32.032C-8.318,31.831 -5.598,30.857 -3.281,30.132C-1.944,29.717 0.265,28.954 0.519,30.822C0.71,32.249 -0.907,32.163 -1.38,33.413C-0.762,33.938 -0.273,32.371 0.345,32.895C0.063,35.031 -1.667,36.607 -3.281,37.904C-5.609,39.778 -8.662,41.64 -7.942,44.979C-7.075,45.293 -6.189,45.401 -5.18,45.153C-4.104,43.559 -2.22,42.217 -0.862,40.494C0.203,39.135 0.719,37.155 2.417,37.212C2.048,37.822 1.492,38.246 1.381,39.111C2.964,38.896 3.093,35.768 4.834,35.139C5.305,36.674 3.224,37.078 3.28,38.767C4.969,38.211 4.796,35.793 6.388,35.139C7.208,36.333 8.344,37.214 8.979,38.593C8.701,40.797 8.62,43.06 8.46,45.327C9.671,44.237 8.564,40.826 10.014,39.974C9.935,41.493 9.879,42.989 11.396,42.911C12.429,42.621 12.182,41.05 12.431,39.974C13.271,39.416 13.998,39.348 15.021,39.285C15.459,38.375 15.726,36.858 16.747,37.041C16.849,35.962 16.601,35.602 17.265,35.139C18.845,35.285 19.334,36.527 20.027,37.558C22.417,38.622 23.689,40.801 25.379,42.563C25.831,44.071 26.4,45.459 27.796,46.019C27.405,43.258 25.684,41.773 26.07,39.111C25.718,38.716 24.924,38.761 24.516,38.421C24.287,35.958 20.78,31.41 23.999,30.65C25.969,30.186 25.966,31.528 27.451,31.86C27.762,31.711 27.993,31.481 28.143,31.172C29.305,31.444 30.001,32.187 31.422,32.206C31.057,31.587 30.26,30.493 29.523,30.822M-13.64,27.545C-13.631,27.018 -14.003,26.874 -14.157,26.507C-14.802,26.439 -15.17,26.644 -15.192,27.199C-15.161,27.685 -14.372,27.414 -14.502,28.06C-14.066,27.696 -14.655,27.614 -13.64,27.545M-6.216,12.352C-7.07,11.822 -7.837,11.211 -8.806,10.796C-8.383,11.554 -6.332,12.427 -6.216,12.352M6.216,53.096C6.103,52.661 7.006,51.912 6.216,51.885C6.443,52.423 5.704,52.844 6.216,53.096M18.819,53.096C19.324,53.053 19.35,53.487 19.854,53.442C20.308,53.147 20.721,52.812 20.544,51.885C19.73,50.933 18.044,51.932 18.819,53.096M-2.935,53.962C-2.224,54.514 -1.659,55.218 -1.036,55.861C0.702,56.091 1.686,56.255 3.107,55.687C3.408,54.26 4.734,53.86 5.524,52.921C4.504,51.875 3.978,50.326 3.107,49.125C-0.37,47.662 -3.958,49.896 -2.935,53.962M7.08,53.27C6.912,53.782 6.378,54.172 6.216,54.649C5.878,55.646 5.939,56.622 5.697,57.414C7.518,55.202 7.812,51.469 8.632,48.261C8.306,48.3 8.252,48.067 7.941,48.089C6.855,49.096 7.617,51.609 7.08,53.27M28.314,47.57C28.234,48.112 28.465,48.341 29.005,48.261C29.149,48.063 29.233,47.801 29.178,47.4C28.69,47.256 28.73,47.643 28.314,47.57M-0.345,42.047C-0.373,41.842 -0.314,41.556 -0.519,41.53C-1.283,43.238 -3.152,43.841 -3.453,46.019C-2.086,45.024 -1.423,43.328 -0.345,42.047M-9.15,39.802C-9.067,40.347 -9.68,40.193 -9.496,40.837C-8.945,41.028 -8.601,39.61 -9.15,39.802M-14.329,34.278C-14.676,34.71 -14.188,35.414 -13.812,35.66C-13.831,35.044 -13.687,34.266 -14.329,34.278M35.566,33.588C36.189,34.289 37.111,34.687 38.329,34.795C37.903,33.898 36.415,34.061 35.566,33.588M36.43,16.496C35.157,16.285 33.096,16.709 32.112,17.357C33.553,16.931 35.528,17.006 36.43,16.496M-11.568,9.068C-11.196,10.079 -10.278,10.544 -9.15,10.796C-9.677,9.942 -10.565,9.451 -11.568,9.068M-1.38,5.962C-1.608,5.72 -2.295,5.341 -2.417,5.962C-2.116,5.913 -1.555,6.449 -1.38,5.962M18.992,-7.158C18.349,-5.959 18.168,-4.299 17.784,-2.842C18.797,-3.786 18.859,-5.68 19.51,-6.986C19.29,-6.995 19.271,-7.207 18.992,-7.158" style="fill:rgb(159,34,38);"/>
        </g>
    </g>
</svg>
