<?xml version="1.0" encoding="UTF-8" standalone="no"?>
<!DOCTYPE svg PUBLIC "-//W3C//DTD SVG 1.1//EN" "http://www.w3.org/Graphics/SVG/1.1/DTD/svg11.dtd">
<svg width="100%" height="100%" viewBox="0 0 530 254" version="1.1" xmlns="http://www.w3.org/2000/svg" xmlns:xlink="http://www.w3.org/1999/xlink" xml:space="preserve" xmlns:serif="http://www.serif.com/" style="fill-rule:evenodd;clip-rule:evenodd;stroke-linejoin:round;stroke-miterlimit:1.41421;">
    <g transform="matrix(1,0,0,1,9.58658,-3.84387)">
        <g transform="matrix(0.204436,0,0,0.204436,-8.26454,104.878)">
            <g transform="matrix(17.1621,0,0,17.1621,-6.46679,-507)">
                <path d="M0,72.72C0,72.72 3.886,68.416 5.967,65.501C8.048,62.589 10.269,61.212 12.212,61.276C14.155,61.341 16.514,61.754 20.122,57.038C23.73,52.32 26.506,48.086 27.894,46.11C29.282,44.131 29.836,43.126 30.947,43.004C32.057,42.881 32.196,40.89 35.249,40.917C37.747,40.383 38.718,38.519 40.245,38.758C41.771,38.995 42.465,37.228 44.962,38.459C47.183,37.471 48.293,35.112 48.432,34.556C46.489,35.943 44.962,35.388 44.962,35.388C44.962,35.388 48.017,33.725 48.294,31.92C46.628,33.447 44.824,32.89 44.824,32.89C44.824,32.89 49.682,30.299 49.819,22.784C49.958,15.267 54.677,5.136 63.836,2.36C72.996,-0.417 73.967,1.112 76.464,1.666C78.963,2.222 81.6,1.112 85.902,2.638C90.204,4.164 94.089,7.078 96.587,12.213C99.085,17.348 96.727,15.406 98.946,18.597C101.167,21.788 101.583,23.453 100.889,25.675C100.195,27.896 100.889,29.852 102.416,32.135C103.942,34.418 105.331,37.131 105.608,38.758C105.885,34.973 106.302,34.695 108.245,34.556C110.188,34.418 114.211,34.14 115.876,33.445C117.542,32.751 118.514,31.098 119.625,32.135C120.734,33.168 120.873,34.14 121.983,34.28C123.093,34.418 123.51,34.556 124.204,35.666C124.897,36.778 126.563,35.851 127.257,37.702C127.951,39.552 128.505,43.785 131.837,46.11C135.167,48.434 137.11,53.629 137.11,53.629C137.11,53.629 143.355,61.341 144.604,72.72C125.176,73.137 0,72.72 0,72.72" style="fill:rgb(35,31,32);fill-rule:nonzero;"/>
            </g>
            <g transform="matrix(17.1621,0,0,17.1621,1044.27,-133.876)">
                <path d="M0,25.926C-0.354,25.971 0.256,20.659 -0.383,17.913C-1.022,15.167 -2.082,12.548 0.077,9.291C0.64,10.825 3.065,11.464 3.065,11.464C3.065,11.464 -0.124,8.206 2.333,3.097C5.109,-3.352 9.004,-0.926 10.282,-3.16C12.134,-0.799 15.135,-0.734 17.562,-1.372C19.988,-2.012 25.672,1.694 24.331,7.95C25.033,7.057 24.969,6.226 24.969,6.226C24.969,6.226 26.374,8.653 28.608,8.589C26.885,7.504 26.374,7.183 25.799,5.202C25.225,3.224 24.777,2.652 24.777,2.652C24.777,2.652 27.355,3.738 27.779,6.035C28.289,3.801 25.544,1.116 25.544,1.116C25.544,1.116 30.205,3.033 30.716,8.589C30.716,11.72 30.605,13.572 32.129,14.911C31.993,18.552 31.692,23.325 30.078,25.001C26.885,26.916 21.584,29.024 15.901,29.151C10.217,29.278 5.173,25.257 0,25.926" style="fill:rgb(167,169,172);fill-rule:nonzero;"/>
            </g>
            <g transform="matrix(17.1621,0,0,17.1621,2475.23,209.714)">
                <path d="M0,30.893C-0.691,24.599 -2.91,19.43 -4.756,16.063C-5.194,15.316 -5.544,14.71 -5.758,14.337C-5.759,14.335 -5.761,14.333 -5.762,14.331C-7.084,12.019 -11.521,9.382 -13.183,7.718C-14.848,6.053 -16.514,4.805 -19.428,4.285C-20.676,5.709 -23.175,7.164 -24.979,5.969C-25.812,6.997 -27.477,7.44 -29.142,5.969C-32.057,6.579 -33.722,4.285 -33.722,4.285C-33.722,4.285 -35.387,4.387 -36.497,4.285C-37.607,4.18 -39.412,1.749 -39.272,-0.343C-40.938,-0.354 -49.82,4.25 -57.313,7.718C-64.807,11.189 -69.249,10.771 -74.106,9.382C-78.963,7.997 -85.208,6.468 -88.122,5.969C-91.037,5.467 -93.673,6.61 -93.673,6.61C-93.673,6.61 -93.673,7.718 -94.506,9.106C-95.338,10.495 -97.003,10.083 -97.003,10.083C-97.003,10.083 -97.975,9.663 -98.53,8.273C-99.641,10.911 -102.277,11.049 -103.248,10.083C-104.081,11.897 -106.024,12.437 -106.578,12.08C-107.134,11.723 -109.493,14.378 -110.187,14.659C-110.881,14.935 -112.13,14.24 -112.784,13.396C-113.438,12.551 -112.407,11.743 -112.645,11.049C-113.854,12.437 -119.762,17.988 -124.342,19.805C-128.921,21.623 -130.448,26.87 -132.53,27.876C-134.278,28.726 -135.923,30.402 -136.407,30.919C-108.267,31.003 -16.411,31.247 0,30.893" style="fill:rgb(241,242,242);fill-rule:nonzero;"/>
            </g>
            <g transform="matrix(17.1621,0,0,17.1621,469.805,304.743)">
                <path d="M0,25.435C1.247,25.438 2.523,25.442 3.825,25.446C5.874,21.282 7.497,14.538 8.053,13.445C8.746,12.081 9.718,10.822 9.718,10.822C9.718,10.822 10.274,12.727 10.412,14.532C12.076,13.42 12.633,7.72 12.633,7.72C12.633,7.72 14.436,9.398 14.298,13.445C15.546,12.081 15.685,7.72 15.685,7.72C15.685,7.72 18.045,11.203 16.241,15.24C18.877,12.477 17.072,6.345 18.045,6.265C19.017,6.186 23.041,9.535 23.734,14.114C24.428,18.696 27.385,25.497 33.145,25.505C29.094,23.991 25.815,13.838 26.028,13.054C26.241,12.271 30.534,18.001 33.171,20.222C35.808,22.442 40.526,24.106 40.526,24.106C40.526,24.106 34.975,20.359 33.171,18.001C31.367,15.643 29.979,12.314 24.012,6.265C27.065,9.241 38.584,13.42 46.771,13.445C54.958,13.467 63.146,13.977 69.391,7.72C63.563,12.011 51.351,12.868 41.636,12.099C31.922,11.331 22.346,3.569 23.042,1.94C27.761,1.14 37.196,8.841 43.718,9.831C50.24,10.82 62.869,11.339 71.611,3.151C65.783,6.345 58.151,7.72 58.151,7.72C58.151,7.72 62.869,6.069 68.42,0.432C51.211,11.868 40.665,7.455 35.946,3.984C34.231,2.723 32.133,1.611 30.154,0.704C29.624,0.595 29.141,0.501 28.73,0.432C25.815,-0.07 23.179,1.073 23.179,1.073C23.179,1.073 23.179,2.181 22.346,3.569C21.514,4.957 19.849,4.546 19.849,4.546C19.849,4.546 18.877,4.125 18.322,2.736C17.211,5.373 14.575,5.512 13.604,4.546C12.771,6.36 10.828,6.9 10.274,6.543C9.718,6.186 7.359,8.841 6.665,9.122C6.071,9.357 5.075,8.882 4.39,8.215C4.484,9.91 4.303,13.394 2.501,19.494C1.63,22.444 0.841,24.3 0,25.435" style="fill:rgb(167,169,172);fill-rule:nonzero;"/>
            </g>
            <g transform="matrix(17.1621,0,0,17.1621,1860.77,701.669)">
                <path d="M0,-22.696C2.914,-20.807 4.44,-19.701 3.607,-17.894C2.775,-16.092 -2.359,-11.048 -15.127,-9.683C-7.495,-7.625 -2.359,-11.048 -2.359,-11.048C-2.359,-11.048 -2.916,-8.346 -8.882,-6.595C-0.278,-6.237 5.828,-11.257 6.938,-15.408C12.18,-10.491 12.045,-1.105 11.789,2.391L12.156,2.391C13.127,-0.428 15.028,-6.96 13.323,-10.747C19.011,-4.711 19.567,0.978 19.567,0.978C19.567,0.978 20.122,-8.801 16.375,-12.306C21.232,-8.735 23.174,-0.789 23.174,-0.789C23.174,-0.789 24.147,-8.12 17.486,-15.408C24.562,-13.037 27.755,-3.254 28.033,-3.634C28.31,-4.017 29.419,-13.716 23.037,-18.582C29.281,-16.923 30.807,-8.875 30.807,-8.875C30.807,-8.875 30.849,-10.905 30.75,-13.11C30.45,-13.624 30.207,-14.044 30.045,-14.328C30.044,-14.33 30.042,-14.332 30.041,-14.334C28.719,-16.646 24.283,-19.283 22.62,-20.947C20.955,-22.612 19.289,-23.86 16.375,-24.381C15.127,-22.956 12.628,-21.502 10.824,-22.696C9.991,-21.669 8.326,-21.225 6.662,-22.696C3.746,-22.087 2.081,-24.381 2.081,-24.381C2.081,-24.381 0.417,-24.278 -0.694,-24.381C-1.043,-24.413 -1.461,-24.675 -1.865,-25.087C-1.598,-24.258 -1.073,-23.39 0,-22.696" style="fill:rgb(167,169,172);fill-rule:nonzero;"/>
            </g>
            <g transform="matrix(17.1621,0,0,17.1621,180.959,502.282)">
                <path d="M0,13.878C2.924,13.887 6.351,13.899 10.168,13.909C14.365,8.473 18.053,-0.031 18.053,-0.031C18.053,-0.031 13.087,7.046 8.786,9.524C10.867,6.866 12.948,2.604 12.948,2.604C12.948,2.604 12.116,3.857 9.201,5.854C7.321,7.145 2.898,11.18 0,13.878" style="fill:rgb(167,169,172);fill-rule:nonzero;"/>
            </g>
            <g transform="matrix(17.1621,0,0,17.1621,1324.89,654.218)">
                <path d="M0,-2.642C4.5,-0.516 14.848,1.169 25.951,-1.913C19.983,1.107 12.074,0.969 12.074,0.969C12.074,0.969 19.013,3.683 25.257,1.976C19.844,4.577 9.992,4.438 0.555,0.831C-8.882,-2.779 -10.412,-5.277 -14.019,-5.695C-14.019,-5.695 -9.714,-7.219 0,-2.642" style="fill:rgb(167,169,172);fill-rule:nonzero;"/>
            </g>
            <g transform="matrix(17.1621,0,0,17.1621,1331.41,-157.384)">
                <path d="M0,28.54C-0.077,26.665 1.086,26.883 1.532,25.54C0.319,26.115 -0.638,25.221 -0.767,22.538C-0.894,19.858 -1.405,18.323 -0.83,17.368C-0.255,16.408 0.639,15.066 -0.383,13.153C-1.723,17.176 -4.086,13.153 -4.086,13.153C-4.086,13.153 -3.257,10.916 -5.653,7.661C-8.05,4.403 -8.429,2.167 -6.896,0.956C-6.146,0.36 -5.702,-0.325 -5.444,-0.872C-5.805,-1.144 -6.144,-1.465 -6.449,-1.854C-7.727,0.38 -11.622,-2.046 -14.398,4.403C-16.855,9.513 -13.666,12.769 -13.666,12.769C-13.666,12.769 -16.091,12.13 -16.654,10.598C-18.813,13.852 -17.753,16.472 -17.114,19.22C-16.475,21.966 -17.085,27.279 -16.731,27.232C-11.558,26.561 -6.514,30.586 -0.83,30.457C-0.549,30.453 -0.271,30.436 0.008,30.42C0.026,29.951 0.032,29.329 0,28.54" style="fill:rgb(147,149,152);fill-rule:nonzero;"/>
            </g>
            <g transform="matrix(17.1621,0,0,17.1621,1294.25,-0.0491409)">
                <path d="M0,-8.905C0.098,-8.059 0.895,-7.499 4.4,-6.104C9.062,-4.253 9.766,0.089 9.766,0.089C10.133,-1.63 9.97,-3.154 9.492,-4.449C8.056,-5.863 5.193,-7.031 3.379,-7.765C2.369,-8.175 1.957,-8.621 1.813,-8.994C1.217,-8.905 0.606,-8.87 0,-8.905" style="fill:rgb(167,169,172);fill-rule:nonzero;"/>
            </g>
            <g transform="matrix(17.1621,0,0,17.1621,1560.47,-111.74)">
                <path d="M0,23.646C1.615,21.968 1.916,17.199 2.052,13.556C0.528,12.216 0.639,10.365 0.639,7.234C0.127,1.678 -4.534,-0.235 -4.534,-0.235C-4.534,-0.235 -1.789,2.446 -2.299,4.682C-2.722,2.384 -5.301,1.298 -5.301,1.298C-5.301,1.298 -4.853,1.871 -4.278,3.851C-3.704,5.831 -3.192,6.149 -1.469,7.234C-3.445,7.293 -4.77,5.407 -5.051,4.966C-4.263,8.175 -1.07,11.975 0.191,14.197C1.293,16.136 0.068,21.89 -0.404,23.881C-0.268,23.803 -0.13,23.725 0,23.646" style="fill:rgb(167,169,172);fill-rule:nonzero;"/>
            </g>
            <g transform="matrix(17.1621,0,0,17.1621,1370.86,187.807)">
                <path d="M0,-9.516C0,-9.516 0.511,-8.43 1.277,-8.303C2.044,-8.174 3.063,-7.409 3.288,-7.024C3.513,-6.644 6.322,-5.238 7.28,-5.109C8.238,-4.982 9.643,-4.791 9.132,-4.471C8.621,-4.154 7.983,-2.173 6.578,-1.535C5.173,-0.894 4.407,-0.703 3.64,-1.215C2.874,-1.725 2.427,-1.725 2.427,-1.408C2.427,-1.088 2.427,-0.321 2.938,0C1.085,-0.638 -0.064,-2.302 0,-3.13C0.063,-3.959 0.462,-4.025 0.519,-4.759C0.576,-5.494 1.229,-5.363 0.519,-5.809C-0.191,-6.261 -0.191,-7.153 0,-9.516" style="fill:rgb(147,149,152);fill-rule:nonzero;"/>
            </g>
            <g transform="matrix(17.1621,0,0,17.1621,1388.41,340.991)">
                <path d="M0,-5.222C0,-5.222 1.979,-4.586 2.873,-3.18C3.767,-1.775 4.725,-0.275 4.725,-0.275L3.912,0C3.912,0 3.065,-1.151 2.043,-2.612C0.958,-3.692 0.702,-3.309 0.702,-3.309C0.702,-3.309 1.149,-4.457 0,-5.222" style="fill:rgb(147,149,152);fill-rule:nonzero;"/>
            </g>
            <g transform="matrix(17.1621,0,0,17.1621,1167.01,-11.6696)">
                <path d="M0,4.151C0,4.151 -0.511,2.872 0,2.107C0.511,1.341 0.511,0.766 0.32,0.445C0.128,0.129 1.597,0 1.98,0.766C2.363,1.532 1.916,2.044 2.491,2.681C3.065,3.32 2.874,4.151 2.874,4.151L0,4.151Z" style="fill:rgb(167,169,172);fill-rule:nonzero;"/>
            </g>
            <g transform="matrix(17.1621,0,0,17.1621,1147.3,329.152)">
                <path d="M0,-10.791C0,-10.791 2.363,-9.13 4.662,-10.473C5.875,-10.473 7.024,-9.834 6.897,-9.068C6.769,-8.302 5.683,-6.322 5.492,-4.151C5.3,-1.978 5.364,0 3.129,-0.512C0.894,-1.021 2.427,-2.619 1.532,-4.788C0.639,-6.961 -0.83,-8.428 0,-10.791" style="fill:rgb(167,169,172);fill-rule:nonzero;"/>
            </g>
            <g transform="matrix(17.1621,0,0,17.1621,1104.01,75.718)">
                <path d="M0,-0.395C0,-0.395 2.59,-1.858 4.235,-1.768C5.879,-1.675 7.799,-0.881 8.865,-0.671C9.932,-0.458 10.236,0.337 9.429,0.9C8.622,1.463 7.431,0.365 5.01,0.001C2.59,-0.364 0,-0.395 0,-0.395" style="fill:rgb(35,31,32);fill-rule:nonzero;"/>
            </g>
            <g transform="matrix(17.1621,0,0,17.1621,1114.47,139.848)">
                <path d="M0,-1.574C0,-1.574 2.65,-2.658 4.143,-2.678C5.635,-2.701 7.341,-1.725 7.768,-1.089C7.494,-1.298 7.128,-1.238 7.128,-1.238C7.128,-1.238 7.951,-0.567 7.921,-0.018C6.884,0.955 5.689,1.127 4.185,1.056C2.68,0.986 0.7,0.04 0,-1.574" style="fill:rgb(35,31,32);fill-rule:nonzero;"/>
            </g>
            <g transform="matrix(17.1621,0,0,17.1621,1375.48,78.7437)">
                <path d="M0,0.335C0,0.335 -0.22,-0.007 1.425,-0.532C3.069,-1.058 4.593,-1.729 5.659,-1.608C6.726,-1.485 9.68,-0.532 9.68,-0.532C9.68,-0.532 6.056,-0.755 4.745,0.036C3.435,0.828 0.131,2.064 0,0.335" style="fill:rgb(35,31,32);fill-rule:nonzero;"/>
            </g>
            <g transform="matrix(17.1621,0,0,17.1621,1383.73,138.445)">
                <path d="M0,-1.007C0,-1.007 0.853,-1.097 1.767,-1.521C2.681,-1.948 3.739,-2.438 5.637,-2.262C7.537,-2.085 8.491,-1.883 8.491,-1.883C8.491,-1.883 7.555,-1.065 6.732,-0.242C5.91,0.579 4.752,1.431 1.706,0.732C0.883,0.55 0,-1.007 0,-1.007" style="fill:rgb(35,31,32);fill-rule:nonzero;"/>
            </g>
            <g transform="matrix(17.1621,0,0,17.1621,1273.67,309.977)">
                <path d="M0,-2.408C0,-2.408 -1.112,-1.277 0.258,0C-1.142,-0.336 -1.02,-1.89 0,-2.408" style="fill:rgb(35,31,32);fill-rule:nonzero;"/>
            </g>
            <g transform="matrix(17.1621,0,0,17.1621,1294.25,324.23)">
                <path d="M0,-1.635C0,-1.635 1.466,-0.337 3.05,-1.635C2.807,-1.045 1.519,0 0,-1.635" style="fill:rgb(35,31,32);fill-rule:nonzero;"/>
            </g>
            <g transform="matrix(17.1621,0,0,17.1621,1357.71,283.281)">
                <path d="M0,0.751C0,0.751 0.69,0 1.027,0.121C1.364,0.244 1.3,0.577 1.027,0.61C0.754,0.641 0.252,0.559 0,0.751" style="fill:rgb(35,31,32);fill-rule:nonzero;"/>
            </g>
            <g transform="matrix(17.1621,0,0,17.1621,1383.73,290.661)">
                <path d="M0,-2.472C0,-2.472 1.949,-1.4 0.669,0C0.914,-0.825 0.975,-1.587 0,-2.472" style="fill:rgb(35,31,32);fill-rule:nonzero;"/>
            </g>
            <g transform="matrix(17.1621,0,0,17.1621,1143.08,145.99)">
                <path d="M0,-1.222C0,-1.222 0.547,-1.381 1.167,-1.355C0.863,-0.868 1.146,-0.201 1.608,0.159C0.692,0.139 0,-1.222 0,-1.222" style="fill:rgb(241,242,242);fill-rule:nonzero;"/>
            </g>
            <g transform="matrix(17.1621,0,0,17.1621,1208.16,148.724)">
                <path d="M0,-1.85C0,-1.85 0.849,-1.643 1.183,-0.898C0.617,0 0,0 0,0C0,0 0.643,-0.847 0,-1.85" style="fill:rgb(241,242,242);fill-rule:nonzero;"/>
            </g>
            <g transform="matrix(17.1621,0,0,17.1621,1404.38,137.167)">
                <path d="M0,-0.579C0,-0.579 0.489,-1.099 1.13,-1.203C0.694,-0.583 0.938,0.211 1.433,0.495C0.617,0.624 0.105,0.026 0,-0.579" style="fill:rgb(241,242,242);fill-rule:nonzero;"/>
            </g>
            <g transform="matrix(17.1621,0,0,17.1621,1461.25,136.439)">
                <path d="M0,-1.518C0,-1.518 1.026,-1.798 2.081,-1.134C1.49,-0.208 0.154,0.28 0.154,0.28C0.154,0.28 0.899,-0.363 0,-1.518" style="fill:rgb(241,242,242);fill-rule:nonzero;"/>
            </g>
            <g transform="matrix(17.1621,0,0,17.1621,1178.61,125.203)">
                <path d="M0,0C0,0.133 -0.091,0.241 -0.205,0.241C-0.318,0.241 -0.411,0.133 -0.411,0C-0.411,-0.134 -0.318,-0.241 -0.205,-0.241C-0.091,-0.241 0,-0.134 0,0" style="fill:rgb(241,242,242);fill-rule:nonzero;"/>
            </g>
            <g transform="matrix(17.1621,0,0,17.1621,1182.43,128.385)">
                <path d="M0,0.003C0,0.093 -0.059,0.166 -0.131,0.166C-0.206,0.166 -0.265,0.093 -0.265,0.003C-0.265,-0.088 -0.206,-0.163 -0.131,-0.163C-0.059,-0.163 0,-0.088 0,0.003" style="fill:rgb(241,242,242);fill-rule:nonzero;"/>
            </g>
            <g transform="matrix(17.1621,0,0,17.1621,1178.61,134.757)">
                <path d="M0,-0.003C0,0.137 -0.096,0.249 -0.214,0.249C-0.332,0.249 -0.428,0.137 -0.428,-0.003C-0.428,-0.14 -0.332,-0.252 -0.214,-0.252C-0.096,-0.252 0,-0.14 0,-0.003" style="fill:rgb(241,242,242);fill-rule:nonzero;"/>
            </g>
            <g transform="matrix(17.1621,0,0,17.1621,1438.32,120.175)">
                <path d="M0,-0.002C0,0.131 -0.092,0.239 -0.206,0.239C-0.318,0.239 -0.411,0.131 -0.411,-0.002C-0.411,-0.135 -0.318,-0.241 -0.206,-0.241C-0.092,-0.241 0,-0.135 0,-0.002" style="fill:rgb(241,242,242);fill-rule:nonzero;"/>
            </g>
            <g transform="matrix(17.1621,0,0,17.1621,1442.15,123.393)">
                <path d="M0,-0.001C0,0.091 -0.059,0.162 -0.133,0.162C-0.207,0.162 -0.266,0.091 -0.266,-0.001C-0.266,-0.093 -0.207,-0.163 -0.133,-0.163C-0.059,-0.163 0,-0.093 0,-0.001" style="fill:rgb(241,242,242);fill-rule:nonzero;"/>
            </g>
            <g transform="matrix(17.1621,0,0,17.1621,1438.32,129.643)">
                <path d="M0,0.001C0,0.14 -0.096,0.252 -0.215,0.252C-0.332,0.252 -0.428,0.14 -0.428,0.001C-0.428,-0.137 -0.332,-0.251 -0.215,-0.251C-0.096,-0.251 0,-0.137 0,0.001" style="fill:rgb(241,242,242);fill-rule:nonzero;"/>
            </g>
            <g transform="matrix(17.1621,0,0,17.1621,634.839,697.481)">
                <path d="M0,-28.992C0,-28.992 1.215,-30.536 2.927,-30.483C4.639,-30.426 5.191,-31.533 6.792,-31.091C8.393,-30.647 9.995,-29.765 11.43,-29.491C12.866,-29.213 13.253,-27.913 13.253,-25.994C13.253,-24.077 12.811,-22.508 12.811,-22.508C12.811,-22.508 10.514,-23.729 10.436,-19.606C9.065,-19.444 9.222,-21.428 9.222,-21.428C9.222,-21.428 10.713,-24.711 10.271,-25.994C9.829,-27.279 7.676,-28.053 7.455,-28.439C7.234,-28.826 7.013,-29.213 7.013,-29.213C7.013,-29.213 7.234,-28.718 7.068,-28.495C6.902,-28.273 6.626,-28.219 6.626,-28.219C7.179,-27.666 9.277,-26.659 9.222,-25.396C9.167,-24.132 8.61,-21.299 7.455,-19.596C5.578,-17.452 4.473,-19.289 4.473,-19.289C4.473,-19.289 5.909,-20.718 5.246,-22.508C4.584,-24.298 1.989,-25.183 1.547,-26.837C1.491,-26.177 1.491,-25.994 1.491,-25.994C1.491,-25.994 0.884,-25.845 0.443,-26.177C0.718,-25.458 1.491,-25.034 2.65,-23.782C3.811,-22.532 4.75,-21.759 4.086,-20.267C3.424,-18.775 2.541,-17.396 1.878,-17.176C1.215,-16.956 0.332,-17.176 0.332,-17.176C0.332,-17.176 0.773,-18.902 0.443,-20.772C0.111,-22.642 -1.49,-22.227 -1.711,-23.705C-1.932,-25.183 -2.318,-25.732 -3.091,-25.458C-2.318,-24.795 -2.484,-24.013 -2.65,-23.384C-2.816,-22.751 -2.816,-21.884 -1.767,-20.772C-0.718,-19.659 0.465,-18.139 -0.165,-16.844C-2.043,-15.244 -2.926,-14.525 -3.368,-14.579C-3.81,-14.636 -4.693,-15.132 -4.969,-15.683C-5.245,-16.236 -4.345,-17.284 -3.966,-17.396C-3.202,-17.065 -3.312,-16.733 -3.258,-16.346C-2.65,-17.01 -2.318,-17.671 -2.926,-17.949C-3.533,-18.225 -7.697,-20.675 -7.453,-23.782C-8.448,-21.538 -6.236,-19.496 -5.409,-18.499C-7.895,-16.346 -12.092,-11.211 -19.546,-8.727C-23.853,-6.077 -20.54,-6.022 -25.73,-1.935C-30.037,0.438 -31.307,2.535 -31.307,2.535C-31.307,2.535 -36.203,2.529 -35.964,2.535C-35.725,2.541 -29.485,-6.022 -27.332,-7.125C-25.178,-8.229 -21.073,-7.151 -19.067,-9.873C-16.675,-12.537 -11.65,-18.278 -9.054,-22.89C-7.21,-26.894 -5.687,-25.979 -4.858,-27.07C-4.03,-28.163 -3.313,-28.759 -1.657,-28.544C0,-28.329 0,-28.992 0,-28.992" style="fill:rgb(167,169,172);fill-rule:nonzero;"/>
            </g>
            <g transform="matrix(17.1621,0,0,17.1621,506.928,626.291)">
                <path d="M0,-19.634C0.787,-21.872 2.843,-21.7 3.487,-23.352C4.13,-25.003 7.779,-23.292 9.055,-25.283C9.375,-25.784 9.693,-26.109 9.989,-26.317C8.487,-26.154 7.453,-24.844 7.453,-24.844C7.453,-24.844 7.453,-24.181 5.796,-24.396C4.141,-24.611 3.423,-24.015 2.595,-22.922C1.767,-21.831 0.243,-22.746 -1.601,-18.742C-4.197,-14.13 -9.222,-8.389 -11.614,-5.725C-13.62,-3.003 -17.725,-4.081 -19.878,-2.977C-22.03,-1.876 -28.256,6.669 -28.509,6.681C-28.314,6.677 -23.854,6.683 -23.854,6.683C-23.854,6.683 -22.583,4.586 -18.277,2.213C-13.086,-1.874 -16.399,-1.929 -12.093,-4.579C-4.639,-7.063 -0.442,-12.198 2.044,-14.351C1.217,-15.348 -0.995,-17.39 0,-19.634" style="fill:rgb(147,149,152);fill-rule:nonzero;"/>
            </g>
            <g transform="matrix(17.1621,0,0,17.1621,17.6253,740.958)">
                <path d="M0,0.002L0.001,0C-0.007,0 -0.011,0 0,0.002" style="fill:rgb(147,149,152);fill-rule:nonzero;"/>
            </g>
            <g transform="matrix(17.1621,0,0,17.1621,705.641,171.525)">
                <path d="M0.001,0L0,0L0.001,0.001L0.001,0Z" style="fill:rgb(147,149,152);"/>
            </g>
            <g transform="matrix(17.1621,0,0,17.1621,789.315,356.085)">
                <path d="M0,-8.872C-1.105,-8.825 -1.988,-9.32 -1.988,-9.32C-1.988,-9.32 -1.767,-8.934 -1.546,-8.547C-1.325,-8.16 0.828,-7.387 1.27,-6.101C1.712,-4.818 0.221,-1.535 0.221,-1.535C0.221,-1.535 0.064,0.448 1.435,0.286C1.476,-1.829 2.1,-2.537 2.699,-2.726C3.399,-4.274 2.96,-6.114 2.152,-7.178C1.326,-8.27 1.104,-8.919 0,-8.872" style="fill:rgb(147,149,152);fill-rule:nonzero;"/>
            </g>
            <g transform="matrix(17.1621,0,0,17.1621,755.192,203.888)">
                <path d="M0,-0.452C0,-0.452 0.019,-0.274 0.114,0C0.102,-0.219 0,-0.452 0,-0.452" style="fill:rgb(147,149,152);fill-rule:nonzero;"/>
            </g>
            <g transform="matrix(17.1621,0,0,17.1621,696.449,320.729)">
                <path d="M0,-5.934C-0.553,-6.597 -1.104,-6.156 -1.159,-5.547C-1.207,-5.044 -2.132,-5.715 -2.059,-4.684C-2.055,-4.747 -2.049,-4.813 -2.042,-4.884C-1.601,-3.231 0.994,-2.345 1.656,-0.555C1.816,-0.121 1.852,0.288 1.817,0.663C2.201,0.237 2.338,-0.12 1.932,-0.555C1.273,-1.263 3.865,-3.395 3.258,-4.058C2.65,-4.719 0.552,-5.271 0,-5.934" style="fill:rgb(147,149,152);fill-rule:nonzero;"/>
            </g>
            <g transform="matrix(17.1621,0,0,17.1621,1885.17,93.038)">
                <path d="M0,9.839C0,9.839 -2.869,10.347 -3.375,7.531C-3.88,4.722 -2.982,4.1 -2.813,2.809C-2.643,1.518 -2.193,0.853 -1.463,0.763C-0.731,0.673 2.848,0.683 4.441,-0.508C2.135,1.573 0.394,3.507 0.112,3.638C-0.226,2.922 -0.9,2.474 -0.9,2.474C-0.9,2.474 -0.563,3.034 -0.788,3.259C-0.9,2.474 -1.463,2.809 -1.463,2.809C-1.463,2.809 -1.07,3.259 -1.182,4.104C-1.294,4.945 -1.575,5.398 -0.844,7.423C-0.114,9.446 0,9.839 0,9.839" style="fill:rgb(147,149,152);fill-rule:nonzero;"/>
            </g>
            <g transform="matrix(17.1621,0,0,17.1621,1961.4,85.9175)">
                <path d="M0,12.251C0,12.251 -1.181,13.244 -2.644,10.792C-4.104,8.341 -5.004,6.315 -4.218,5.475C-3.43,4.63 0.702,0.75 1.982,-0.318C3.262,-1.386 4.048,-1.948 4.499,-1.386C4.948,-0.823 5.061,-0.033 5.849,0.189C6.636,0.412 8.266,-0.025 8.661,1.178C9.053,2.381 9.222,2.039 9.954,2.407C10.684,2.773 11.921,2.461 12.314,4.053C12.708,5.645 13.383,9.471 16.532,12.364C13.552,11.548 11.64,10.289 11.64,10.289C11.64,10.289 11.808,9.645 12.54,9.641C13.271,9.635 14.003,9.635 13.159,9.185C12.314,8.736 11.697,8.679 11.865,7.778C12.033,6.88 11.302,6.87 11.302,6.87C11.302,6.87 11.584,8.294 10.403,9.811C9.222,11.322 7.479,12.959 6.299,12.45C5.118,11.942 6.299,9.129 7.479,7.16C8.661,5.192 8.322,4.574 8.322,4.574C8.322,4.574 8.098,5.464 7.705,5.469C7.367,4.744 6.012,4.292 6.012,4.292C6.012,4.292 7.253,4.798 6.691,6.261C6.13,7.724 4.161,11.042 4.837,12.251C3.599,13.459 2.306,14.199 0.843,10.792C-0.282,8.847 3.937,2.719 3.937,2.719C3.937,2.719 3.824,2.547 3.655,2.407C3.486,2.269 3.092,1.647 2.98,2.295C2.868,2.941 -1.688,8.849 0,12.251" style="fill:rgb(167,169,172);fill-rule:nonzero;"/>
            </g>
            <g transform="matrix(17.1621,0,0,17.1621,2110.03,262.544)">
                <path d="M0,-9.114C-0.395,-10.317 -2.025,-9.88 -2.812,-10.102C-3.6,-10.325 -3.712,-11.115 -4.162,-11.677C-4.612,-12.24 -5.398,-11.677 -6.679,-10.61C-7.959,-9.542 -12.09,-5.662 -12.878,-4.817C-13.665,-3.976 -12.765,-1.951 -11.304,0.5C-9.841,2.952 -8.661,1.959 -8.661,1.959C-8.72,1.839 -8.771,1.716 -8.814,1.591C-9.398,1.219 -10.113,0.532 -10.178,-0.651C-10.291,-2.679 -11.697,-3.894 -10.685,-4.355C-9.673,-4.817 -7.48,-5.945 -6.861,-7.068C-6.243,-8.189 -5.25,-8.637 -5.903,-7.535C-5.774,-7.758 -5.694,-7.917 -5.68,-7.997C-5.568,-8.645 -5.174,-8.023 -5.005,-7.885C-4.837,-7.745 -4.724,-7.573 -4.724,-7.573C-4.724,-7.573 -8.942,-1.445 -7.817,0.5C-6.913,2.606 -6.073,3.126 -5.272,2.932C-5.479,2.801 -5.721,2.312 -5.906,0.918C-6.299,-2.063 -5.652,-3.556 -4.851,-4.355C-4.178,-5.028 -3.504,-6.489 -2.243,-5.719C-2.447,-5.916 -2.649,-6 -2.649,-6C-2.649,-6 -1.293,-5.548 -0.956,-4.823C-0.563,-4.828 -0.339,-5.718 -0.339,-5.718C-0.339,-5.718 -0.286,-5.617 -0.297,-5.376C-0.134,-5.684 0.054,-6.135 0.281,-6.786C0.436,-7.236 0.454,-7.756 0.375,-8.308C0.255,-8.445 0.142,-8.678 0,-9.114" style="fill:rgb(147,149,152);fill-rule:nonzero;"/>
            </g>
            <g transform="matrix(17.1621,0,0,17.1621,992.813,-489.555)">
                <path d="M0,46.221C0,46.221 1.784,43.064 1.785,38.521C1.021,42.376 0.549,43.845 -0.629,44.764C0.942,41.825 0.942,39.079 0,37.584C0,40.411 -1.416,42.096 -1.416,42.096C-1.416,42.096 -0.236,37.997 -1.416,36.374C-1.258,40.49 -2.673,41.67 -2.673,41.67C-2.673,41.67 -1.808,37.56 -3.302,34.582C-4.795,31.608 -5.582,29.33 -4.402,26.263C-4.795,29.958 -1.593,33.837 -1.593,33.837C-1.593,33.837 -3.459,31.294 -3.145,27.364C-2.83,30.664 -1.022,31.491 -1.022,31.491C-1.022,31.491 -1.93,29.033 -1.593,28.039C-2.595,25.792 -2.044,23.591 -2.044,23.591C-2.044,23.591 -1.771,28.821 1.178,30.018C0.472,25.32 1.571,21.751 3.93,19.529C0.942,20.448 0.786,23.513 0.786,23.513C0.786,23.513 -0.786,20.448 4.716,17.501C2.829,16.91 0.393,19.529 0.393,19.529C0.393,19.529 2.387,15.259 7.089,14.867C4.166,13.688 -0.236,15.967 -0.236,15.967C-0.236,15.967 2.185,11.723 8.756,13.216C5.502,10.622 6.479,8.108 6.479,8.108C6.479,8.108 7.627,12.117 10.416,12.194C8.96,10.07 8.756,8.814 8.756,8.814C8.756,8.814 11.177,13.216 13.055,13.53C10.925,9.206 13.127,6.614 17.135,5.592C13.283,7.321 12.511,11.25 14.076,12.902C13.44,8.814 16.585,6.848 19.729,7.084C16.349,7.715 13.672,11.25 15.01,13.923C15.641,9.993 18.549,8.108 21.889,8.421C17.764,9.522 16.192,12.429 16.978,14.316C19.493,10.464 22.466,9.522 26.049,10.542C23.109,10.464 22.289,12.902 22.289,12.902C22.289,12.902 27.076,11.173 29.376,13.923C27.196,13.137 24.145,13.452 23.981,14.158C29.376,13.923 31.269,17.067 31.269,17.067C31.269,17.067 25.758,13.452 22.547,15.967C29.161,16.202 31.598,18.785 33.642,21.78C31.284,19.11 30.184,19.529 30.184,19.529C30.184,19.529 34.192,21.234 34.664,25.398C35.134,29.566 35.214,31.454 37.258,31.922C36.078,32.71 35.214,31.454 35.214,31.454C35.214,31.454 34.82,33.867 37.258,33.995C39.3,33.181 39.3,31.996 39.3,31.996C39.3,31.996 39.694,35.129 36.864,35.843C37.336,38.761 35.842,43.821 35.842,43.821C35.842,43.821 37.663,40.889 38.279,37.584C37.965,40.805 37.1,42.096 37.1,42.096C37.1,42.096 38.473,41.044 39.319,37.191C39.537,39.546 38.043,42.096 38.043,42.096C38.043,42.096 41.322,39.148 41.137,34.709C41.423,38.605 39.537,42.096 39.537,42.096C39.537,42.096 42.367,39.62 42.603,37.03C42.995,39.468 41.974,40.95 41.974,40.95C41.974,40.95 45.117,38.607 44.253,35.579C43.389,32.553 40.85,30.486 41.137,28.612C39.773,30.822 38.123,31.165 38.123,31.165C38.123,31.165 41.266,27.599 37.258,21.234C39.064,22.334 39.458,25.32 39.458,25.32C39.458,25.32 40.322,22.254 38.986,19.975C40.637,21.469 40.323,24.07 40.323,24.07C40.323,24.07 41.66,22.144 39.851,19.529C38.043,16.91 37.179,16.044 37.493,14.63C37.808,13.216 37.1,8.185 28.848,3.547C22.637,0.771 22.231,2.693 16.623,1.347C11.016,0 1.021,2.996 -2.83,9.835C-5.816,15.809 -4.634,20.655 -3.224,24.07C-4.48,23.591 -5.424,20.606 -5.581,19.11C-6.76,22.648 -5.581,25.79 -5.581,25.79C-5.581,25.79 -6.682,23.67 -6.76,22.648C-7.704,25.164 -7.546,31.869 -5.581,34.296C-6.996,33.336 -7.351,31.214 -7.605,30.586C-9.04,31.687 -8.254,35.864 -12.026,37.745C-9.428,39.675 -6.839,38.526 -6.446,41.355C-6.052,44.185 -6.917,45.783 -6.917,45.783C-6.917,45.783 -2.14,44.919 0,46.221" style="fill:rgb(56,55,57);fill-rule:nonzero;"/>
            </g>
            <g transform="matrix(17.1621,0,0,17.1621,1684.84,213.895)">
                <path d="M0,-6.666C0,-6.666 0.314,-4.978 -1.572,-4.075C-0.393,-5.766 0,-9.498 0,-9.498C0,-9.498 -0.169,-9.062 -1.018,-8.949C-0.984,-8.571 -0.823,-5.811 -3.459,-5.145C-2.987,-2.228 -4.481,2.832 -4.481,2.832C-4.481,2.832 -2.661,-0.1 -2.044,-3.404C-2.358,-0.184 -3.223,1.107 -3.223,1.107C-3.223,1.107 -1.85,0.056 -1.004,-3.798C-0.786,-1.442 -2.28,1.107 -2.28,1.107C-2.28,1.107 -1.286,0.207 -0.423,-1.336C0.479,-4.505 0,-6.666 0,-6.666" style="fill:rgb(64,64,66);fill-rule:nonzero;"/>
            </g>
            <g transform="matrix(17.1621,0,0,17.1621,1375.34,159.373)">
                <path d="M0,-24.91C0,-24.91 4.787,-26.639 7.087,-23.889C4.907,-24.675 1.856,-24.359 1.692,-23.654C7.087,-23.889 8.979,-20.745 8.979,-20.745C8.979,-20.745 3.469,-24.359 0.258,-21.845C6.872,-21.609 9.309,-19.026 11.353,-16.032C8.995,-18.702 7.895,-18.283 7.895,-18.283C7.895,-18.283 11.903,-16.578 12.375,-12.414C12.845,-8.246 12.925,-6.357 14.969,-5.889C13.789,-5.101 12.925,-6.357 12.925,-6.357C12.925,-6.357 12.531,-3.945 14.969,-3.816C16.777,-4.539 16.985,-5.548 17.009,-5.77C16.692,-5.727 16.286,-5.729 15.755,-5.815C13.711,-6.607 13.711,-11.311 13.711,-14.184C13.711,-17.059 10.017,-21.609 10.017,-21.609C10.017,-21.609 11.117,-21.687 11.667,-20.247C10.488,-24.938 5.006,-26.482 5.006,-26.482C5.006,-26.482 7.973,-27.348 10.252,-25.145C8.444,-27.425 5.772,-29.39 1.041,-29.233C0.556,-30.805 5.486,-29.863 5.486,-29.863C5.486,-29.863 -0.202,-32.613 -2.875,-31.592C-3.503,-31.985 -2.875,-33.319 -2.875,-33.319C-2.875,-33.319 -10.813,-31.827 -10.867,-28.133C-13.037,-27.681 -15.81,-31.433 -15.81,-31.433C-15.81,-31.433 -18.516,-28.683 -16.958,-26.326C-23.18,-25.695 -24.097,-20.247 -24.097,-20.247C-24.097,-20.247 -23.389,-21.138 -21.817,-20.824C-24.568,-17.837 -23.154,-13.742 -23.154,-13.742C-23.154,-13.742 -24.333,-14.221 -24.333,-15.242C-25.748,-13.435 -25.041,-10.211 -25.041,-10.211C-25.041,-10.211 -25.513,-11.236 -25.548,-12.727C-26.666,-11.812 -26.14,-9.772 -26.14,-9.772C-26.14,-9.772 -26.691,-11.549 -26.769,-12.727C-28.027,-11.713 -28.105,-5.889 -25.983,-2.26C-23.861,1.366 -25.983,6.009 -25.983,6.009C-25.983,6.009 -24.568,5.981 -24.212,4.757C-23.497,6.457 -23.407,7.442 -23.446,7.948C-23.016,8.057 -22.621,8.208 -22.289,8.409C-22.289,8.409 -20.505,5.252 -20.504,0.709C-21.268,4.565 -21.74,6.033 -22.918,6.952C-21.347,4.014 -21.347,1.268 -22.289,-0.227C-22.289,2.6 -23.705,4.284 -23.705,4.284C-23.705,4.284 -22.525,0.186 -23.705,-1.437C-23.547,2.678 -24.962,3.859 -24.962,3.859C-24.962,3.859 -24.097,-0.252 -25.591,-3.229C-27.084,-6.204 -27.871,-8.481 -26.691,-11.549C-27.084,-7.853 -23.882,-3.974 -23.882,-3.974C-23.882,-3.974 -25.748,-6.517 -25.434,-10.448C-25.119,-7.147 -23.312,-6.321 -23.312,-6.321C-23.312,-6.321 -24.219,-8.778 -23.882,-9.772C-24.884,-12.019 -24.333,-14.221 -24.333,-14.221C-24.333,-14.221 -24.06,-8.991 -21.111,-7.794C-21.817,-12.492 -20.718,-16.06 -18.359,-18.283C-21.347,-17.364 -21.503,-14.299 -21.503,-14.299C-21.503,-14.299 -23.075,-17.364 -17.573,-20.31C-19.46,-20.901 -21.896,-18.283 -21.896,-18.283C-21.896,-18.283 -19.902,-22.553 -15.2,-22.945C-18.123,-24.124 -22.525,-21.845 -22.525,-21.845C-22.525,-21.845 -20.104,-26.089 -13.533,-24.596C-16.787,-27.189 -15.81,-29.704 -15.81,-29.704C-15.81,-29.704 -14.662,-25.695 -11.874,-25.618C-13.329,-27.742 -13.533,-28.998 -13.533,-28.998C-13.533,-28.998 -11.112,-24.596 -9.234,-24.282C-11.364,-28.605 -9.162,-31.198 -5.154,-32.22C-9.006,-30.491 -9.778,-26.561 -8.213,-24.91C-8.849,-28.998 -5.704,-30.964 -2.56,-30.727C-5.94,-30.097 -8.617,-26.561 -7.279,-23.889C-6.648,-27.818 -3.74,-29.704 -0.4,-29.39C-4.525,-28.29 -6.097,-25.383 -5.312,-23.496C-2.796,-27.348 0.177,-28.29 3.76,-27.269C0.82,-27.348 0,-24.91 0,-24.91" style="fill:rgb(64,64,66);fill-rule:nonzero;"/>
            </g>
            <g transform="matrix(17.1621,0,0,17.1621,2581.44,-332.441)">
                <path d="M0,-0.001C0,0.083 -0.058,0.152 -0.126,0.152C-0.198,0.152 -0.253,0.083 -0.253,-0.001C-0.253,-0.085 -0.198,-0.153 -0.126,-0.153C-0.058,-0.153 0,-0.085 0,-0.001" style="fill:rgb(241,242,242);fill-rule:nonzero;"/>
            </g>
        </g>
    </g>
</svg>
